<svg xmlns="http://www.w3.org/2000/svg" viewBox="0 0 1200 750">
<rect width="1200" height="750" fill="#ffffff" stroke="#777" stroke-width="3"/>
<text x="600" y="70" font-family="Times New Roman, serif" font-size="48" text-anchor="middle">Presidential Election of 2000</text>
<text x="600" y="120" font-family="Times New Roman, serif" font-size="28" text-anchor="middle">Electoral and Popular Vote Results</text>
<rect x="20" y="160" width="90" height="90" fill="#8fa9d6" stroke="#555" stroke-width="2" />
<text x="65.0" y="215.0" font-family="Times New Roman, serif" font-size="24" text-anchor="middle" fill="#111">WA</text>
<rect x="120" y="160" width="90" height="90" fill="#b0bec5" stroke="#555" stroke-width="2" />
<text x="165.0" y="215.0" font-family="Times New Roman, serif" font-size="24" text-anchor="middle" fill="#111">MT</text>
<rect x="220" y="160" width="90" height="90" fill="#b0bec5" stroke="#555" stroke-width="2" />
<text x="265.0" y="215.0" font-family="Times New Roman, serif" font-size="24" text-anchor="middle" fill="#111">ND</text>
<rect x="320" y="160" width="90" height="90" fill="#8fa9d6" stroke="#555" stroke-width="2" />
<text x="365.0" y="215.0" font-family="Times New Roman, serif" font-size="24" text-anchor="middle" fill="#111">MN</text>
<rect x="420" y="160" width="90" height="90" fill="#8fa9d6" stroke="#555" stroke-width="2" />
<text x="465.0" y="215.0" font-family="Times New Roman, serif" font-size="24" text-anchor="middle" fill="#111">WI</text>
<rect x="520" y="160" width="90" height="90" fill="#8fa9d6" stroke="#555" stroke-width="2" />
<text x="565.0" y="215.0" font-family="Times New Roman, serif" font-size="24" text-anchor="middle" fill="#111">MI</text>
<rect x="620" y="160" width="90" height="90" fill="#8fa9d6" stroke="#555" stroke-width="2" />
<text x="665.0" y="215.0" font-family="Times New Roman, serif" font-size="24" text-anchor="middle" fill="#111">VT</text>
<rect x="720" y="160" width="90" height="90" fill="#b0bec5" stroke="#555" stroke-width="2" />
<text x="765.0" y="215.0" font-family="Times New Roman, serif" font-size="24" text-anchor="middle" fill="#111">NH</text>
<rect x="20" y="260" width="90" height="90" fill="#8fa9d6" stroke="#555" stroke-width="2" />
<text x="65.0" y="315.0" font-family="Times New Roman, serif" font-size="24" text-anchor="middle" fill="#111">OR</text>
<rect x="120" y="260" width="90" height="90" fill="#b0bec5" stroke="#555" stroke-width="2" />
<text x="165.0" y="315.0" font-family="Times New Roman, serif" font-size="24" text-anchor="middle" fill="#111">ID</text>
<rect x="220" y="260" width="90" height="90" fill="#b0bec5" stroke="#555" stroke-width="2" />
<text x="265.0" y="315.0" font-family="Times New Roman, serif" font-size="24" text-anchor="middle" fill="#111">SD</text>
<rect x="320" y="260" width="90" height="90" fill="#8fa9d6" stroke="#555" stroke-width="2" />
<text x="365.0" y="315.0" font-family="Times New Roman, serif" font-size="24" text-anchor="middle" fill="#111">IA</text>
<rect x="420" y="260" width="90" height="90" fill="#8fa9d6" stroke="#555" stroke-width="2" />
<text x="465.0" y="315.0" font-family="Times New Roman, serif" font-size="24" text-anchor="middle" fill="#111">IL</text>
<rect x="520" y="260" width="90" height="90" fill="#b0bec5" stroke="#555" stroke-width="2" />
<text x="565.0" y="315.0" font-family="Times New Roman, serif" font-size="24" text-anchor="middle" fill="#111">IN</text>
<rect x="620" y="260" width="90" height="90" fill="#b0bec5" stroke="#555" stroke-width="2" />
<text x="665.0" y="315.0" font-family="Times New Roman, serif" font-size="24" text-anchor="middle" fill="#111">OH</text>
<rect x="720" y="260" width="90" height="90" fill="#8fa9d6" stroke="#555" stroke-width="2" />
<text x="765.0" y="315.0" font-family="Times New Roman, serif" font-size="24" text-anchor="middle" fill="#111">PA</text>
<rect x="820" y="260" width="90" height="90" fill="#8fa9d6" stroke="#555" stroke-width="2" />
<text x="865.0" y="315.0" font-family="Times New Roman, serif" font-size="24" text-anchor="middle" fill="#111">NY</text>
<rect x="920" y="260" width="90" height="90" fill="#8fa9d6" stroke="#555" stroke-width="2" />
<text x="965.0" y="315.0" font-family="Times New Roman, serif" font-size="24" text-anchor="middle" fill="#111">ME</text>
<rect x="20" y="360" width="90" height="90" fill="#8fa9d6" stroke="#555" stroke-width="2" />
<text x="65.0" y="415.0" font-family="Times New Roman, serif" font-size="24" text-anchor="middle" fill="#111">CA</text>
<rect x="120" y="360" width="90" height="90" fill="#b0bec5" stroke="#555" stroke-width="2" />
<text x="165.0" y="415.0" font-family="Times New Roman, serif" font-size="24" text-anchor="middle" fill="#111">NV</text>
<rect x="220" y="360" width="90" height="90" fill="#b0bec5" stroke="#555" stroke-width="2" />
<text x="265.0" y="415.0" font-family="Times New Roman, serif" font-size="24" text-anchor="middle" fill="#111">WY</text>
<rect x="320" y="360" width="90" height="90" fill="#b0bec5" stroke="#555" stroke-width="2" />
<text x="365.0" y="415.0" font-family="Times New Roman, serif" font-size="24" text-anchor="middle" fill="#111">CO</text>
<rect x="420" y="360" width="90" height="90" fill="#b0bec5" stroke="#555" stroke-width="2" />
<text x="465.0" y="415.0" font-family="Times New Roman, serif" font-size="24" text-anchor="middle" fill="#111">NE</text>
<rect x="520" y="360" width="90" height="90" fill="#b0bec5" stroke="#555" stroke-width="2" />
<text x="565.0" y="415.0" font-family="Times New Roman, serif" font-size="24" text-anchor="middle" fill="#111">MO</text>
<rect x="620" y="360" width="90" height="90" fill="#b0bec5" stroke="#555" stroke-width="2" />
<text x="665.0" y="415.0" font-family="Times New Roman, serif" font-size="24" text-anchor="middle" fill="#111">KY</text>
<rect x="720" y="360" width="90" height="90" fill="#d9d9d9" stroke="#555" stroke-width="2" />
<text x="765.0" y="415.0" font-family="Times New Roman, serif" font-size="24" text-anchor="middle" fill="#111">WV</text>
<rect x="820" y="360" width="90" height="90" fill="#b0bec5" stroke="#555" stroke-width="2" />
<text x="865.0" y="415.0" font-family="Times New Roman, serif" font-size="24" text-anchor="middle" fill="#111">VA</text>
<rect x="920" y="360" width="90" height="90" fill="#8fa9d6" stroke="#555" stroke-width="2" />
<text x="965.0" y="415.0" font-family="Times New Roman, serif" font-size="24" text-anchor="middle" fill="#111">MD</text>
<rect x="20" y="460" width="90" height="90" fill="#b0bec5" stroke="#555" stroke-width="2" />
<text x="65.0" y="515.0" font-family="Times New Roman, serif" font-size="24" text-anchor="middle" fill="#111">AZ</text>
<rect x="120" y="460" width="90" height="90" fill="#b0bec5" stroke="#555" stroke-width="2" />
<text x="165.0" y="515.0" font-family="Times New Roman, serif" font-size="24" text-anchor="middle" fill="#111">UT</text>
<rect x="220" y="460" width="90" height="90" fill="#8fa9d6" stroke="#555" stroke-width="2" />
<text x="265.0" y="515.0" font-family="Times New Roman, serif" font-size="24" text-anchor="middle" fill="#111">NM</text>
<rect x="320" y="460" width="90" height="90" fill="#b0bec5" stroke="#555" stroke-width="2" />
<text x="365.0" y="515.0" font-family="Times New Roman, serif" font-size="24" text-anchor="middle" fill="#111">KS</text>
<rect x="420" y="460" width="90" height="90" fill="#b0bec5" stroke="#555" stroke-width="2" />
<text x="465.0" y="515.0" font-family="Times New Roman, serif" font-size="24" text-anchor="middle" fill="#111">AR</text>
<rect x="520" y="460" width="90" height="90" fill="#b0bec5" stroke="#555" stroke-width="2" />
<text x="565.0" y="515.0" font-family="Times New Roman, serif" font-size="24" text-anchor="middle" fill="#111">TN</text>
<rect x="620" y="460" width="90" height="90" fill="#b0bec5" stroke="#555" stroke-width="2" />
<text x="665.0" y="515.0" font-family="Times New Roman, serif" font-size="24" text-anchor="middle" fill="#111">NC</text>
<rect x="720" y="460" width="90" height="90" fill="#b0bec5" stroke="#555" stroke-width="2" />
<text x="765.0" y="515.0" font-family="Times New Roman, serif" font-size="24" text-anchor="middle" fill="#111">SC</text>
<rect x="820" y="460" width="90" height="90" fill="#b0bec5" stroke="#555" stroke-width="2" />
<text x="865.0" y="515.0" font-family="Times New Roman, serif" font-size="24" text-anchor="middle" fill="#111">GA</text>
<rect x="920" y="460" width="90" height="90" fill="#8fa9d6" stroke="#555" stroke-width="2" />
<text x="965.0" y="515.0" font-family="Times New Roman, serif" font-size="24" text-anchor="middle" fill="#111">NJ</text>
<rect x="20" y="560" width="90" height="90" fill="#b0bec5" stroke="#555" stroke-width="2" />
<text x="65.0" y="615.0" font-family="Times New Roman, serif" font-size="24" text-anchor="middle" fill="#111">AK</text>
<rect x="120" y="560" width="90" height="90" fill="#8fa9d6" stroke="#555" stroke-width="2" />
<text x="165.0" y="615.0" font-family="Times New Roman, serif" font-size="24" text-anchor="middle" fill="#111">HI</text>
<rect x="220" y="560" width="90" height="90" fill="#b0bec5" stroke="#555" stroke-width="2" />
<text x="265.0" y="615.0" font-family="Times New Roman, serif" font-size="24" text-anchor="middle" fill="#111">TX</text>
<rect x="320" y="560" width="90" height="90" fill="#b0bec5" stroke="#555" stroke-width="2" />
<text x="365.0" y="615.0" font-family="Times New Roman, serif" font-size="24" text-anchor="middle" fill="#111">OK</text>
<rect x="420" y="560" width="90" height="90" fill="#b0bec5" stroke="#555" stroke-width="2" />
<text x="465.0" y="615.0" font-family="Times New Roman, serif" font-size="24" text-anchor="middle" fill="#111">LA</text>
<rect x="520" y="560" width="90" height="90" fill="#b0bec5" stroke="#555" stroke-width="2" />
<text x="565.0" y="615.0" font-family="Times New Roman, serif" font-size="24" text-anchor="middle" fill="#111">MS</text>
<rect x="620" y="560" width="90" height="90" fill="#b0bec5" stroke="#555" stroke-width="2" />
<text x="665.0" y="615.0" font-family="Times New Roman, serif" font-size="24" text-anchor="middle" fill="#111">AL</text>
<rect x="720" y="560" width="90" height="90" fill="#b0bec5" stroke="#555" stroke-width="2" />
<text x="765.0" y="615.0" font-family="Times New Roman, serif" font-size="24" text-anchor="middle" fill="#111">FL</text>
<rect x="820" y="560" width="90" height="90" fill="#8fa9d6" stroke="#555" stroke-width="2" />
<text x="865.0" y="615.0" font-family="Times New Roman, serif" font-size="24" text-anchor="middle" fill="#111">DE</text>
<rect x="920" y="560" width="90" height="90" fill="#8fa9d6" stroke="#555" stroke-width="2" />
<text x="965.0" y="615.0" font-family="Times New Roman, serif" font-size="24" text-anchor="middle" fill="#111">RI</text>
<rect x="320" y="660" width="90" height="90" fill="#8fa9d6" stroke="#555" stroke-width="2" />
<text x="365.0" y="715.0" font-family="Times New Roman, serif" font-size="24" text-anchor="middle" fill="#111">MA</text>
<rect x="420" y="660" width="90" height="90" fill="#8fa9d6" stroke="#555" stroke-width="2" />
<text x="465.0" y="715.0" font-family="Times New Roman, serif" font-size="24" text-anchor="middle" fill="#111">CT</text>
<rect x="520" y="660" width="90" height="90" fill="#8fa9d6" stroke="#555" stroke-width="2" />
<text x="565.0" y="715.0" font-family="Times New Roman, serif" font-size="24" text-anchor="middle" fill="#111">DC</text>
<rect x="780" y="190" width="360" height="200" fill="#f2f2f2" stroke="#666" stroke-width="2" />
<text x="960" y="230" font-family="Times New Roman, serif" font-size="26" text-anchor="middle">Electoral Vote</text>
<text x="820" y="270" font-family="Times New Roman, serif" font-size="22">Bush (Republican)</text>
<text x="1180" y="270" font-family="Times New Roman, serif" font-size="22" text-anchor="end">271 (50.4%)</text>
<text x="820" y="310" font-family="Times New Roman, serif" font-size="22">Gore (Democrat)</text>
<text x="1180" y="310" font-family="Times New Roman, serif" font-size="22" text-anchor="end">266 (49.4%)</text>
<text x="820" y="350" font-family="Times New Roman, serif" font-size="22">Nader (Green)</text>
<text x="1180" y="350" font-family="Times New Roman, serif" font-size="22" text-anchor="end">0 (0.0%)</text>
<text x="960" y="410" font-family="Times New Roman, serif" font-size="26" text-anchor="middle">Popular Vote</text>
<text x="820" y="450" font-family="Times New Roman, serif" font-size="22">Bush</text>
<text x="1180" y="450" font-family="Times New Roman, serif" font-size="22" text-anchor="end">50,456,169 (47.87%)</text>
<text x="820" y="490" font-family="Times New Roman, serif" font-size="22">Gore</text>
<text x="1180" y="490" font-family="Times New Roman, serif" font-size="22" text-anchor="end">50,996,116 (48.38%)</text>
<text x="820" y="530" font-family="Times New Roman, serif" font-size="22">Nader</text>
<text x="1180" y="530" font-family="Times New Roman, serif" font-size="22" text-anchor="end">2,783,728 (2.72%)</text>
<text x="960" y="580" font-family="Times New Roman, serif" font-size="20" text-anchor="middle">*One elector from the District of Columbia abstained.</text>
<rect x="820" y="620" width="200" height="60" fill="#b0bec5" stroke="#555" stroke-width="2" />
<text x="920" y="655" font-family="Times New Roman, serif" font-size="24" text-anchor="middle">Bush Carry</text>
<rect x="1040" y="620" width="200" height="60" fill="#8fa9d6" stroke="#555" stroke-width="2" />
<text x="1140" y="655" font-family="Times New Roman, serif" font-size="24" text-anchor="middle">Gore Carry</text>
<text x="600" y="710" font-family="Times New Roman, serif" font-size="22" text-anchor="middle">Source: Houghton Mifflin (adapted)</text>
</svg>